<?xml version="1.0" encoding="UTF-8"?>
<svg xmlns="http://www.w3.org/2000/svg" version="1.1" viewBox="0 0 768 227">
  <defs>
    <style>
      .cls-1 {
        fill: #00dcea;
        fill-rule: evenodd;
      }

      .cls-2 {
        fill: #162a33;
      }
    </style>
  </defs>
  <!-- Generator: Adobe Illustrator 28.7.1, SVG Export Plug-In . SVG Version: 1.2.0 Build 142)  -->
  <g>
    <g id="Layer_1">
      <g id="Layer_11">
        <path class="cls-1" d="M163.9,102.9c-10.9-.1-19.1-6.1-23.2-16.7-1.6-4.3-2.8-9.1-5.4-12.8-7.3-10.2-17.4-12.8-29.5-10-16.1,3.7-28.4-3.3-32.3-17.7-3.3-12.4,3.3-25,15.4-29.7,12-4.6,25.6.4,31.2,11.7,1.2,2.6,2.1,5.4,3,8.1,4.2,14.1,17.1,21.6,31.6,18.2,18-4.2,31.6,3.7,34.3,19.8,2.6,15.6-9.4,29.4-25.1,29.2h-.1v-.2Z"/>
        <path class="cls-1" d="M99,138c-10.9-.1-19.1-6.1-23.2-16.7-1.6-4.3-2.8-9.1-5.4-12.8-7.3-10.2-17.4-12.8-29.5-10-16.1,3.7-28.4-3.3-32.3-17.7-3.3-12.4,3.3-25,15.4-29.7,12-4.6,25.6.4,31.2,11.7,1.2,2.6,2.1,5.4,3,8.1,4.2,14.1,17.1,21.6,31.6,18.2,18-4.2,31.6,3.7,34.3,19.8,2.6,15.6-9.4,29.4-25.1,29.2h-.1v-.2Z"/>
        <path class="cls-1" d="M123.2,190.1c.2,14.1-7.9,24.3-20.4,26.9-11.7,2.6-23.2-3.8-27.8-15.4-.9-2.5-1.5-5-2.6-7.6-4.4-12.4-16.8-19.1-29.7-16.9-5.8.9-12.1,2-17.7.9-11.5-2.4-18.7-13.3-18.2-25.5.4-11.9,8.7-21.2,20.7-23.5,11.3-2.3,22.6,3.8,27.2,14.3,1,2.5,1.6,5,2.6,7.6,4.3,13.5,17,20.6,30.8,17.5,17.2-3.9,29.5,1.8,33.9,16,.7,2.4.9,4.7,1.1,5.5h.1Z"/>
        <path class="cls-1" d="M163.9,179.3c-14,0-24.9-11-24.9-25s11.3-25.6,25.5-25.5c13.8.1,25,11.4,25,25.2s-11.3,25.3-25.6,25.2h0Z"/>
      </g>
      <g>
        <path class="cls-2" d="M301.9,138.5c0,8.4-3.2,14.9-9.7,19.7-6.5,4.8-15.3,7.2-26.5,7.2s-20.1-2.8-26.9-8.3c-6.8-5.5-10.6-13-11.5-22.5h8c.5,7.4,3.5,13.2,8.9,17.5,5.5,4.3,12.6,6.5,21.5,6.5s15.7-1.7,20.5-5c4.8-3.3,7.2-8,7.2-14.1s-1.7-9.4-5-12.3c-3.3-2.8-9.1-5.1-17.2-6.6l-12.7-2.4c-9.1-1.8-16-4.9-20.6-9.2-4.7-4.3-7-9.8-7-16.6s1.4-9.6,4.3-13.5c2.8-3.9,6.8-7,11.8-9.2,5-2.2,10.8-3.3,17.4-3.3s13.4,1.2,18.6,3.5c5.3,2.4,9.5,5.8,12.5,10.3,3.1,4.5,4.8,9.8,5.2,16h-8c-.6-7.3-3.4-13-8.5-17.1-5-4.1-11.6-6.2-19.7-6.2s-13.6,1.7-18.3,5.2c-4.7,3.5-7,8-7,13.7s1.7,9.3,5.2,12.3c3.5,3,9.2,5.2,17.2,6.8l12.9,2.5c9.6,1.8,16.5,4.7,20.9,8.6,4.4,3.9,6.5,9.4,6.5,16.3Z"/>
        <path class="cls-2" d="M371,155.7v7.5c-2.2.8-4.2,1.4-6.1,1.7-1.9.3-3.8.5-5.7.5-4.9,0-9.3-.9-13.3-2.6-4-1.8-7.2-4.6-9.6-8.6-2.4-4-3.6-9.3-3.6-16v-62.9h-23.5v-6.9h23.5v-28.4h8.5v28.4h30.7v6.9h-30.7v61.3c0,8,1.8,13.5,5.5,16.5,3.6,3,8.2,4.5,13.6,4.5s3.7-.1,5.4-.4c1.6-.2,3.4-.7,5.4-1.5Z"/>
        <path class="cls-2" d="M400.9,110.8v52.7h-8.4v-95.3h8v22.9c3.2-7.4,8-13.4,14.5-17.9,6.5-4.5,13.7-6.8,21.6-6.8v8.9c-6.5-.1-12.5,1.3-17.9,4.4-5.4,3-9.7,7.2-12.9,12.6-3.2,5.4-4.8,11.5-4.8,18.5Z"/>
        <path class="cls-2" d="M465.2,46.1c0,2.3-.8,4.2-2.3,5.7-1.5,1.5-3.4,2.3-5.7,2.3s-4.2-.8-5.8-2.3c-1.6-1.5-2.4-3.4-2.4-5.7s.8-4,2.4-5.4c1.6-1.4,3.5-2.1,5.8-2.1s4.2.7,5.7,2.1c1.5,1.4,2.3,3.2,2.3,5.4ZM461.4,163.6h-8.4v-95.3h8.4v95.3Z"/>
        <path class="cls-2" d="M524.7,165.6c-8.1,0-15.3-2.1-21.6-6.3-6.2-4.2-11.1-10-14.6-17.5-3.5-7.5-5.3-16.2-5.3-26s1.8-18.2,5.3-25.6c3.5-7.4,8.4-13.2,14.6-17.4,6.2-4.2,13.4-6.3,21.6-6.3s13.5,1.5,19.1,4.5c5.6,3,10.2,7.2,14,12.8,3.8,5.6,6.2,12.2,7.5,20h-8.4c-1.7-9.6-5.4-17-11-22.3-5.6-5.3-12.6-7.9-21-7.9s-12.3,1.8-17.3,5.4c-5,3.6-8.9,8.5-11.6,14.8-2.8,6.3-4.2,13.6-4.2,22s1.4,15.8,4.2,22.3c2.8,6.5,6.7,11.5,11.6,15.1,5,3.6,10.7,5.4,17.3,5.4s15.5-2.7,21.2-8.1c5.6-5.4,9.3-12.8,11-22.3h8.2c-1.1,7.8-3.5,14.4-7.2,20-3.7,5.6-8.4,9.9-14.1,12.9-5.7,3-12.1,4.5-19.3,4.5Z"/>
        <path class="cls-2" d="M632.9,155.7v7.5c-2.2.8-4.2,1.4-6.1,1.7-1.9.3-3.8.5-5.7.5-4.9,0-9.3-.9-13.3-2.6s-7.2-4.6-9.6-8.6c-2.4-4-3.6-9.3-3.6-16v-62.9h-23.5v-6.9h23.5v-28.4h8.5v28.4h30.7v6.9h-30.7v61.3c0,8,1.8,13.5,5.5,16.5,3.6,3,8.2,4.5,13.6,4.5s3.7-.1,5.4-.4c1.6-.2,3.4-.7,5.4-1.5Z"/>
        <path class="cls-2" d="M662.7,163.6h-8.4V33h8.4v130.6Z"/>
        <path class="cls-2" d="M761.3,68.3l-49.6,130.4h-8.9l14-36.4-38-94h8.9l33.5,83.5,31.5-83.5h8.7Z"/>
      </g>
    </g>
  </g>
</svg>