<?xml version="1.0" encoding="UTF-8"?>
<svg id="Layer_1" xmlns="http://www.w3.org/2000/svg" viewBox="0 0 760.91 209.05">
  <defs>
    <style>
      .cls-1 {
        fill: #00dcea;
        fill-rule: evenodd;
      }

      .cls-2 {
        fill: #162a33;
      }
    </style>
  </defs>
  <g id="Layer_11">
    <path class="cls-1" d="M161.67,91.12c-11.24-.11-19.61-6.25-23.85-17.17-1.7-4.45-2.86-9.33-5.51-13.14-7.53-10.49-17.91-13.14-30.32-10.28-16.54,3.82-29.26-3.39-33.18-18.23-3.39-12.72,3.39-25.76,15.79-30.53,12.3-4.77,26.29.42,32.12,12.08,1.27,2.65,2.12,5.51,3.07,8.37,4.35,14.52,17.6,22.26,32.54,18.76,18.55-4.35,32.54,3.82,35.3,20.35,2.65,16.01-9.65,30.21-25.86,30h-.11v-.21Z"/>
    <path class="cls-1" d="M94.99,127.27c-11.24-.11-19.61-6.25-23.85-17.17-1.7-4.45-2.86-9.33-5.51-13.14-7.53-10.49-17.91-13.14-30.32-10.28-16.54,3.82-29.26-3.39-33.18-18.23-3.39-12.72,3.39-25.76,15.79-30.53,12.3-4.77,26.29.42,32.12,12.08,1.27,2.65,2.12,5.51,3.07,8.37,4.35,14.52,17.6,22.26,32.54,18.76,18.55-4.35,32.54,3.82,35.3,20.35,2.65,16.01-9.65,30.21-25.86,30h-.11v-.21Z"/>
    <path class="cls-1" d="M119.8,180.8c.21,14.52-8.16,25.02-20.99,27.67-12.08,2.65-23.85-3.92-28.62-15.79-.95-2.54-1.59-5.19-2.65-7.84-4.56-12.72-17.28-19.61-30.53-17.38-5.94.95-12.4,2.01-18.23.95C6.91,165.96-.41,154.72.02,142.21c.42-12.19,8.9-21.84,21.31-24.17,11.66-2.33,23.21,3.92,27.98,14.73,1.06,2.54,1.7,5.19,2.65,7.84,4.45,13.89,17.49,21.2,31.69,18.02,17.7-4.03,30.32,1.8,34.87,16.43.74,2.44.95,4.88,1.17,5.62h.11v.11Z"/>
    <path class="cls-1" d="M161.67,169.77c-14.42,0-25.65-11.34-25.65-25.76s11.66-26.29,26.18-26.18c14.2.11,25.76,11.77,25.76,25.97s-11.66,26.08-26.29,25.97h0Z"/>
  </g>
  <g>
    <path class="cls-2" d="M296.63,126.18c0,8.46-3.28,15.1-9.83,19.94-6.56,4.84-15.47,7.26-26.74,7.26s-20.34-2.79-27.2-8.36c-6.86-5.57-10.72-13.14-11.58-22.7h8.09c.49,7.48,3.49,13.39,9.01,17.74,5.51,4.35,12.74,6.53,21.69,6.53s15.84-1.68,20.68-5.05c4.84-3.37,7.26-8.12,7.26-14.24,0-5.39-1.69-9.53-5.05-12.41-3.37-2.88-9.16-5.11-17.37-6.71l-12.87-2.39c-9.19-1.84-16.15-4.93-20.86-9.28-4.72-4.35-7.08-9.95-7.08-16.82,0-5.15,1.44-9.71,4.32-13.69,2.88-3.98,6.86-7.08,11.95-9.28,5.08-2.21,10.94-3.31,17.55-3.31,7.23,0,13.51,1.19,18.84,3.58,5.33,2.39,9.56,5.85,12.68,10.38,3.12,4.53,4.87,9.93,5.24,16.17h-8.09c-.61-7.35-3.46-13.11-8.55-17.28-5.09-4.16-11.73-6.25-19.94-6.25-7.6,0-13.76,1.75-18.47,5.24-4.72,3.49-7.08,8.12-7.08,13.88,0,5.27,1.75,9.41,5.24,12.41,3.49,3,9.28,5.3,17.37,6.89l13.05,2.57c9.68,1.84,16.73,4.75,21.14,8.73,4.41,3.98,6.62,9.47,6.62,16.45Z"/>
    <path class="cls-2" d="M366.48,143.65v7.54c-2.21.86-4.26,1.44-6.16,1.75-1.9.3-3.83.46-5.79.46-4.9,0-9.37-.89-13.42-2.67s-7.29-4.69-9.74-8.73c-2.45-4.04-3.68-9.43-3.68-16.17v-63.6h-23.71v-6.98h23.71v-28.67h8.64v28.67h31.06v6.98h-31.06v61.94c0,8.09,1.84,13.66,5.51,16.73,3.68,3.06,8.27,4.59,13.79,4.59,1.96,0,3.77-.12,5.42-.37,1.65-.24,3.46-.74,5.42-1.47Z"/>
    <path class="cls-2" d="M396.62,98.25v53.3h-8.46V55.24h8.09v23.16c3.18-7.47,8.05-13.51,14.61-18.1,6.55-4.59,13.81-6.89,21.78-6.89v9.01c-6.62-.12-12.65,1.35-18.11,4.41-5.45,3.06-9.8,7.32-13.05,12.77-3.25,5.45-4.87,11.67-4.87,18.66Z"/>
    <path class="cls-2" d="M461.69,32.81c0,2.33-.77,4.26-2.3,5.79-1.53,1.53-3.46,2.3-5.79,2.3s-4.29-.76-5.88-2.3c-1.59-1.53-2.39-3.46-2.39-5.79,0-2.21.8-4.01,2.39-5.42,1.59-1.41,3.55-2.11,5.88-2.11s4.26.71,5.79,2.11c1.53,1.41,2.3,3.22,2.3,5.42ZM457.83,151.55h-8.46V55.24h8.46v96.31Z"/>
    <path class="cls-2" d="M521.79,153.57c-8.21,0-15.47-2.11-21.78-6.34-6.31-4.23-11.24-10.14-14.8-17.74-3.56-7.6-5.33-16.36-5.33-26.28s1.77-18.44,5.33-25.92c3.55-7.47,8.48-13.33,14.8-17.55,6.31-4.23,13.57-6.34,21.78-6.34,7.23,0,13.66,1.5,19.3,4.5,5.64,3,10.35,7.32,14.15,12.96,3.8,5.64,6.31,12.38,7.54,20.22h-8.46c-1.72-9.68-5.42-17.19-11.12-22.52s-12.77-8-21.23-8c-6.62,0-12.44,1.81-17.46,5.42-5.03,3.62-8.95,8.61-11.76,14.98-2.82,6.37-4.23,13.79-4.23,22.24s1.41,15.96,4.23,22.52c2.82,6.56,6.74,11.64,11.76,15.26,5.02,3.62,10.84,5.42,17.46,5.42,8.58,0,15.72-2.73,21.41-8.18,5.7-5.45,9.4-12.96,11.12-22.52h8.27c-1.1,7.84-3.52,14.58-7.26,20.22-3.74,5.64-8.49,9.99-14.24,13.05-5.76,3.06-12.25,4.6-19.48,4.6Z"/>
    <path class="cls-2" d="M631.15,143.65v7.54c-2.21.86-4.26,1.44-6.16,1.75-1.9.3-3.83.46-5.79.46-4.9,0-9.37-.89-13.42-2.67s-7.29-4.69-9.74-8.73c-2.45-4.04-3.68-9.43-3.68-16.17v-63.6h-23.71v-6.98h23.71v-28.67h8.64v28.67h31.06v6.98h-31.06v61.94c0,8.09,1.84,13.66,5.51,16.73,3.68,3.06,8.27,4.59,13.79,4.59,1.96,0,3.77-.12,5.42-.37,1.65-.24,3.46-.74,5.42-1.47Z"/>
    <path class="cls-2" d="M661.29,151.55h-8.46V19.58h8.46v131.97Z"/>
    <path class="cls-2" d="M760.91,55.24l-50.18,131.79h-9.01l14.15-36.76-38.41-95.03h9.01l33.82,84.37,31.8-84.37h8.82Z"/>
  </g>
</svg>